<svg xmlns="http://www.w3.org/2000/svg" viewBox="0 0 240 240" fill="none" stroke="#1F2933" stroke-width="2.5" stroke-linejoin="round" stroke-linecap="round">
  <title>Three yellow ducks on the water</title>
  <rect x="0" y="0" width="240" height="240" fill="#FFF8EE" stroke="none"/>
  <rect x="0" y="150" width="240" height="90" fill="#3DA9FC"/>
  <path d="M0 170 Q60 164 120 170 Q180 176 240 170" stroke-width="2" stroke="#FFFFFF" fill="none"/>
  <g fill="#FFC857" stroke="#1F2933">
    <g><ellipse cx="60" cy="180" rx="22" ry="15"/><circle cx="72" cy="164" r="12"/><path d="M82 160 L96 156 L84 170 Z" fill="#F08A4B"/><circle cx="72" cy="162" r="2" fill="#1F2933"/></g>
    <g><ellipse cx="120" cy="180" rx="22" ry="15"/><circle cx="132" cy="164" r="12"/><path d="M142 160 L156 156 L144 170 Z" fill="#F08A4B"/><circle cx="132" cy="162" r="2" fill="#1F2933"/></g>
    <g><ellipse cx="180" cy="180" rx="22" ry="15"/><circle cx="192" cy="164" r="12"/><path d="M202 160 L216 156 L204 170 Z" fill="#F08A4B"/><circle cx="192" cy="162" r="2" fill="#1F2933"/></g>
  </g>
  <text x="40" y="80" font-family="'Fredoka', system-ui, sans-serif" font-size="64" font-weight="700" fill="#F08A4B" stroke="none">3</text>
</svg>
