<svg xmlns="http://www.w3.org/2000/svg" viewBox="0 0 240 240" fill="none" stroke="#1F2933" stroke-width="2.5" stroke-linejoin="round" stroke-linecap="round">
  <title>Ten yellow ducks on the water</title>
  <rect x="0" y="0" width="240" height="240" fill="#FFF8EE" stroke="none"/>
  <rect x="0" y="100" width="240" height="140" fill="#3DA9FC"/>
  <g fill="#FFC857" stroke="#1F2933">
    <g><ellipse cx="35" cy="124" rx="10" ry="6.5"/><circle cx="41" cy="119" r="5.5"/><path d="M45 117 L52 116 L46 122 Z" fill="#F08A4B"/><circle cx="41" cy="117" r="1.1" fill="#1F2933"/></g>
    <g><ellipse cx="85" cy="124" rx="10" ry="6.5"/><circle cx="91" cy="119" r="5.5"/><path d="M95 117 L102 116 L96 122 Z" fill="#F08A4B"/><circle cx="91" cy="117" r="1.1" fill="#1F2933"/></g>
    <g><ellipse cx="135" cy="124" rx="10" ry="6.5"/><circle cx="141" cy="119" r="5.5"/><path d="M145 117 L152 116 L146 122 Z" fill="#F08A4B"/><circle cx="141" cy="117" r="1.1" fill="#1F2933"/></g>
    <g><ellipse cx="185" cy="124" rx="10" ry="6.5"/><circle cx="191" cy="119" r="5.5"/><path d="M195 117 L202 116 L196 122 Z" fill="#F08A4B"/><circle cx="191" cy="117" r="1.1" fill="#1F2933"/></g>
    <g><ellipse cx="35" cy="160" rx="10" ry="6.5"/><circle cx="41" cy="155" r="5.5"/><path d="M45 153 L52 152 L46 158 Z" fill="#F08A4B"/><circle cx="41" cy="153" r="1.1" fill="#1F2933"/></g>
    <g><ellipse cx="85" cy="160" rx="10" ry="6.5"/><circle cx="91" cy="155" r="5.5"/><path d="M95 153 L102 152 L96 158 Z" fill="#F08A4B"/><circle cx="91" cy="153" r="1.1" fill="#1F2933"/></g>
    <g><ellipse cx="135" cy="160" rx="10" ry="6.5"/><circle cx="141" cy="155" r="5.5"/><path d="M145 153 L152 152 L146 158 Z" fill="#F08A4B"/><circle cx="141" cy="153" r="1.1" fill="#1F2933"/></g>
    <g><ellipse cx="185" cy="160" rx="10" ry="6.5"/><circle cx="191" cy="155" r="5.5"/><path d="M195 153 L202 152 L196 158 Z" fill="#F08A4B"/><circle cx="191" cy="153" r="1.1" fill="#1F2933"/></g>
    <g><ellipse cx="60" cy="200" rx="10" ry="6.5"/><circle cx="66" cy="195" r="5.5"/><path d="M70 193 L77 192 L71 198 Z" fill="#F08A4B"/><circle cx="66" cy="193" r="1.1" fill="#1F2933"/></g>
    <g><ellipse cx="160" cy="200" rx="10" ry="6.5"/><circle cx="166" cy="195" r="5.5"/><path d="M170 193 L177 192 L171 198 Z" fill="#F08A4B"/><circle cx="166" cy="193" r="1.1" fill="#1F2933"/></g>
  </g>
  <text x="30" y="74" font-family="'Fredoka', system-ui, sans-serif" font-size="48" font-weight="700" fill="#F08A4B" stroke="none">10</text>
</svg>
