<svg xmlns="http://www.w3.org/2000/svg" viewBox="0 0 240 240" fill="none" stroke="#1F2933" stroke-width="2.5" stroke-linejoin="round" stroke-linecap="round">
  <title>Four yellow ducks on the water</title>
  <rect x="0" y="0" width="240" height="240" fill="#FFF8EE" stroke="none"/>
  <rect x="0" y="130" width="240" height="110" fill="#3DA9FC"/>
  <path d="M0 150 Q60 144 120 150 Q180 156 240 150" stroke-width="2" stroke="#FFFFFF" fill="none"/>
  <path d="M0 200 Q60 194 120 200 Q180 206 240 200" stroke-width="2" stroke="#FFFFFF" fill="none"/>
  <g fill="#FFC857" stroke="#1F2933">
    <g><ellipse cx="60" cy="160" rx="18" ry="12"/><circle cx="70" cy="148" r="10"/><path d="M78 144 L90 142 L80 152 Z" fill="#F08A4B"/><circle cx="70" cy="146" r="1.8" fill="#1F2933"/></g>
    <g><ellipse cx="160" cy="160" rx="18" ry="12"/><circle cx="170" cy="148" r="10"/><path d="M178 144 L190 142 L180 152 Z" fill="#F08A4B"/><circle cx="170" cy="146" r="1.8" fill="#1F2933"/></g>
    <g><ellipse cx="100" cy="200" rx="18" ry="12"/><circle cx="110" cy="188" r="10"/><path d="M118 184 L130 182 L120 192 Z" fill="#F08A4B"/><circle cx="110" cy="186" r="1.8" fill="#1F2933"/></g>
    <g><ellipse cx="200" cy="200" rx="18" ry="12"/><circle cx="210" cy="188" r="10"/><path d="M218 184 L230 182 L220 192 Z" fill="#F08A4B"/><circle cx="210" cy="186" r="1.8" fill="#1F2933"/></g>
  </g>
  <text x="40" y="80" font-family="'Fredoka', system-ui, sans-serif" font-size="56" font-weight="700" fill="#F08A4B" stroke="none">4</text>
</svg>
