<svg xmlns="http://www.w3.org/2000/svg" viewBox="0 0 240 240" fill="none" stroke="#1F2933" stroke-width="2.5" stroke-linejoin="round" stroke-linecap="round">
  <title>Seven yellow ducks on the water</title>
  <rect x="0" y="0" width="240" height="240" fill="#FFF8EE" stroke="none"/>
  <rect x="0" y="100" width="240" height="140" fill="#3DA9FC"/>
  <g fill="#FFC857" stroke="#1F2933">
    <g><ellipse cx="40" cy="124" rx="12" ry="8"/><circle cx="46" cy="118" r="7"/><path d="M52 116 L60 114 L54 122 Z" fill="#F08A4B"/><circle cx="46" cy="116" r="1.3" fill="#1F2933"/></g>
    <g><ellipse cx="100" cy="124" rx="12" ry="8"/><circle cx="106" cy="118" r="7"/><path d="M112 116 L120 114 L114 122 Z" fill="#F08A4B"/><circle cx="106" cy="116" r="1.3" fill="#1F2933"/></g>
    <g><ellipse cx="160" cy="124" rx="12" ry="8"/><circle cx="166" cy="118" r="7"/><path d="M172 116 L180 114 L174 122 Z" fill="#F08A4B"/><circle cx="166" cy="116" r="1.3" fill="#1F2933"/></g>
    <g><ellipse cx="40" cy="168" rx="12" ry="8"/><circle cx="46" cy="162" r="7"/><path d="M52 160 L60 158 L54 166 Z" fill="#F08A4B"/><circle cx="46" cy="160" r="1.3" fill="#1F2933"/></g>
    <g><ellipse cx="100" cy="168" rx="12" ry="8"/><circle cx="106" cy="162" r="7"/><path d="M112 160 L120 158 L114 166 Z" fill="#F08A4B"/><circle cx="106" cy="160" r="1.3" fill="#1F2933"/></g>
    <g><ellipse cx="160" cy="168" rx="12" ry="8"/><circle cx="166" cy="162" r="7"/><path d="M172 160 L180 158 L174 166 Z" fill="#F08A4B"/><circle cx="166" cy="160" r="1.3" fill="#1F2933"/></g>
    <g><ellipse cx="100" cy="208" rx="12" ry="8"/><circle cx="106" cy="202" r="7"/><path d="M112 200 L120 198 L114 206 Z" fill="#F08A4B"/><circle cx="106" cy="200" r="1.3" fill="#1F2933"/></g>
  </g>
  <text x="40" y="74" font-family="'Fredoka', system-ui, sans-serif" font-size="48" font-weight="700" fill="#F08A4B" stroke="none">7</text>
</svg>
