<svg xmlns="http://www.w3.org/2000/svg" viewBox="0 0 240 240" fill="none" stroke="#1F2933" stroke-width="2.5" stroke-linejoin="round" stroke-linecap="round">
  <title>A grandmother figure with grey hair and glasses</title>
  <ellipse cx="120" cy="172" rx="58" ry="50" fill="#9D8DF1"/>
  <circle cx="120" cy="92" r="44" fill="#C68863"/>
  <path d="M76 90 Q70 56 120 52 Q170 56 164 90 Q164 64 140 60 L100 62 Q80 70 76 90 Z" fill="#B7BEC9"/>
  <path d="M76 92 Q66 76 80 70 Z" fill="#B7BEC9"/>
  <path d="M164 92 Q174 76 160 70 Z" fill="#B7BEC9"/>
  <circle cx="106" cy="98" r="10" fill="#FFFFFF" stroke="#1F2933" stroke-width="2"/>
  <circle cx="134" cy="98" r="10" fill="#FFFFFF" stroke="#1F2933" stroke-width="2"/>
  <line x1="116" y1="98" x2="124" y2="98" stroke-width="2"/>
  <circle cx="106" cy="98" r="3" fill="#1F2933" stroke="none"/>
  <circle cx="134" cy="98" r="3" fill="#1F2933" stroke="none"/>
  <path d="M108 120 Q120 128 132 120" stroke-width="2"/>
  <circle cx="96" cy="114" r="4" fill="#FFB5A7" stroke="none" opacity="0.75"/>
  <circle cx="144" cy="114" r="4" fill="#FFB5A7" stroke="none" opacity="0.75"/>
</svg>
