<svg xmlns="http://www.w3.org/2000/svg" viewBox="0 0 240 240" fill="none" stroke="#1F2933" stroke-width="2.5" stroke-linejoin="round" stroke-linecap="round">
  <title>A grandfather figure with grey hair and a friendly smile</title>
  <ellipse cx="120" cy="172" rx="58" ry="50" fill="#5FB37C"/>
  <circle cx="120" cy="92" r="44" fill="#C68863"/>
  <path d="M80 86 Q76 56 120 52 Q164 56 160 86 L160 78 Q140 70 120 70 Q100 70 80 80 Z" fill="#B7BEC9"/>
  <path d="M98 124 Q120 144 142 124 L142 134 Q120 152 98 134 Z" fill="#B7BEC9"/>
  <circle cx="106" cy="96" r="10" fill="#FFFFFF" stroke="#1F2933" stroke-width="2"/>
  <circle cx="134" cy="96" r="10" fill="#FFFFFF" stroke="#1F2933" stroke-width="2"/>
  <line x1="116" y1="96" x2="124" y2="96" stroke-width="2"/>
  <circle cx="106" cy="96" r="3" fill="#1F2933" stroke="none"/>
  <circle cx="134" cy="96" r="3" fill="#1F2933" stroke="none"/>
  <path d="M108 122 Q120 128 132 122" stroke-width="2"/>
</svg>
