<svg xmlns="http://www.w3.org/2000/svg" viewBox="0 0 240 240" fill="none" stroke="#1F2933" stroke-width="2.5" stroke-linejoin="round" stroke-linecap="round">
  <title>A mother figure smiling</title>
  <ellipse cx="120" cy="170" rx="58" ry="52" fill="#3DA9FC"/>
  <circle cx="120" cy="90" r="46" fill="#C68863"/>
  <path d="M76 90 Q72 50 120 44 Q168 50 164 92 Q164 60 140 54 L102 56 Q80 64 76 90 Z" fill="#1F2933"/>
  <path d="M72 92 Q60 110 70 130 L80 116" fill="#1F2933"/>
  <path d="M168 92 Q180 110 170 130 L160 116" fill="#1F2933"/>
  <circle cx="104" cy="92" r="4.5" fill="#1F2933" stroke="none"/>
  <circle cx="136" cy="92" r="4.5" fill="#1F2933" stroke="none"/>
  <circle cx="105" cy="90" r="1.4" fill="#FFFFFF" stroke="none"/>
  <circle cx="137" cy="90" r="1.4" fill="#FFFFFF" stroke="none"/>
  <path d="M106 110 Q120 122 134 110" stroke-width="2"/>
  <circle cx="98" cy="106" r="5" fill="#FFB5A7" stroke="none" opacity="0.7"/>
  <circle cx="142" cy="106" r="5" fill="#FFB5A7" stroke="none" opacity="0.7"/>
</svg>
