<svg xmlns="http://www.w3.org/2000/svg" viewBox="0 0 240 240" fill="none" stroke="#1F2933" stroke-width="2.5" stroke-linejoin="round" stroke-linecap="round">
  <title>A casual hand wave, hi</title>
  <path d="M120 210 Q108 188 108 168 L106 130 Q106 122 114 122 Q122 122 122 130 L122 108 Q122 100 130 100 Q138 100 138 108 L138 102 Q138 94 146 94 Q154 94 154 102 L154 114 Q154 102 162 102 Q170 102 170 110 L170 150 Q170 184 148 206 Q138 214 120 210 Z" fill="#F08A4B"/>
  <path d="M122 132 L122 156" stroke-width="1.5"/>
  <path d="M138 116 L138 152" stroke-width="1.5"/>
  <path d="M154 116 L154 152" stroke-width="1.5"/>
  <path d="M40 80 Q60 64 80 80" stroke-width="3" stroke="#3DA9FC" fill="none" stroke-dasharray="2 6"/>
</svg>
