<svg xmlns="http://www.w3.org/2000/svg" viewBox="0 0 240 240" fill="none" stroke="#1F2933" stroke-width="2.5" stroke-linejoin="round" stroke-linecap="round">
  <title>A smiling face waving hello</title>
  <circle cx="100" cy="120" r="62" fill="#FFC857"/>
  <circle cx="84" cy="112" r="5" fill="#1F2933" stroke="none"/>
  <circle cx="116" cy="112" r="5" fill="#1F2933" stroke="none"/>
  <circle cx="85" cy="110" r="1.6" fill="#FFFFFF" stroke="none"/>
  <circle cx="117" cy="110" r="1.6" fill="#FFFFFF" stroke="none"/>
  <path d="M82 138 Q100 156 118 138" stroke-width="2.5"/>
  <circle cx="70" cy="130" r="6" fill="#FFB5A7" stroke="none" opacity="0.85"/>
  <circle cx="130" cy="130" r="6" fill="#FFB5A7" stroke="none" opacity="0.85"/>
  <path d="M180 70 Q170 56 174 42 Q186 40 198 50 Q210 40 218 56 Q224 70 218 86 L216 130 Q212 156 188 162 Q172 158 168 140 Q166 124 172 110 Z" fill="#FFC857"/>
  <path d="M188 70 L188 110" stroke-width="1.5"/>
  <path d="M200 68 L200 112" stroke-width="1.5"/>
  <path d="M212 76 L212 116" stroke-width="1.5"/>
</svg>
