<svg xmlns="http://www.w3.org/2000/svg" viewBox="0 0 240 240" fill="none" stroke="#1F2933" stroke-width="2.5" stroke-linejoin="round" stroke-linecap="round">
  <title>Sister and brother share fruit, yum</title>
  <rect x="0" y="0" width="240" height="240" fill="#3DA9FC" stroke="none" opacity="0.35"/>
  <rect x="0" y="180" width="240" height="60" fill="#5FB37C" stroke="none"/>
  <path d="M0 180 L240 180" stroke-width="2.5"/>
  <rect x="20" y="160" width="200" height="20" rx="6" fill="#E04848"/>
  <circle cx="76" cy="124" r="26" fill="#FFFFFF"/>
  <ellipse cx="68" cy="94" rx="6" ry="18" fill="#FFFFFF"/>
  <ellipse cx="84" cy="94" rx="6" ry="18" fill="#FFFFFF"/>
  <circle cx="70" cy="124" r="3" fill="#1F2933" stroke="none"/>
  <circle cx="82" cy="124" r="3" fill="#1F2933" stroke="none"/>
  <path d="M68 136 Q76 144 84 136" stroke-width="1.5"/>
  <circle cx="76" cy="152" r="3" fill="#FFB5A7" stroke="none" opacity="0.7"/>
  <circle cx="164" cy="124" r="26" fill="#FFFFFF"/>
  <ellipse cx="156" cy="94" rx="6" ry="18" fill="#FFFFFF"/>
  <ellipse cx="172" cy="94" rx="6" ry="18" fill="#FFFFFF"/>
  <circle cx="158" cy="124" r="3" fill="#1F2933" stroke="none"/>
  <circle cx="170" cy="124" r="3" fill="#1F2933" stroke="none"/>
  <path d="M156 136 Q164 144 172 136" stroke-width="1.5"/>
  <circle cx="120" cy="140" r="14" fill="#F08A4B"/>
  <path d="M120 128 Q124 122 130 124" stroke-width="2"/>
  <path d="M122 122 Q130 118 132 124 Q128 128 122 124 Z" fill="#5FB37C"/>
</svg>
