<svg xmlns="http://www.w3.org/2000/svg" viewBox="0 0 240 240" fill="none" stroke="#1F2933" stroke-width="2.5" stroke-linejoin="round" stroke-linecap="round">
  <title>One, two, three ducklings jump in first</title>
  <rect x="0" y="0" width="240" height="240" fill="#3DA9FC" stroke="none" opacity="0.25"/>
  <rect x="0" y="150" width="240" height="90" fill="#3DA9FC"/>
  <path d="M0 160 Q40 154 80 160 Q120 166 160 160 Q200 154 240 160" stroke-width="2" stroke="#FFFFFF" fill="none"/>
  <g>
    <ellipse cx="60" cy="180" rx="22" ry="16" fill="#FFC857"/>
    <circle cx="72" cy="166" r="12" fill="#FFC857"/>
    <path d="M82 164 L92 162 L84 170 Z" fill="#F08A4B"/>
    <circle cx="72" cy="164" r="2" fill="#1F2933" stroke="none"/>
  </g>
  <g>
    <ellipse cx="120" cy="180" rx="22" ry="16" fill="#FFC857"/>
    <circle cx="132" cy="166" r="12" fill="#FFC857"/>
    <path d="M142 164 L152 162 L144 170 Z" fill="#F08A4B"/>
    <circle cx="132" cy="164" r="2" fill="#1F2933" stroke="none"/>
  </g>
  <g>
    <ellipse cx="180" cy="180" rx="22" ry="16" fill="#FFC857"/>
    <circle cx="192" cy="166" r="12" fill="#FFC857"/>
    <path d="M202 164 L212 162 L204 170 Z" fill="#F08A4B"/>
    <circle cx="192" cy="164" r="2" fill="#1F2933" stroke="none"/>
  </g>
  <text x="40" y="74" font-family="'Fredoka', system-ui, sans-serif" font-size="48" font-weight="700" fill="#F08A4B" stroke="none">1</text>
  <text x="100" y="74" font-family="'Fredoka', system-ui, sans-serif" font-size="48" font-weight="700" fill="#5FB37C" stroke="none">2</text>
  <text x="160" y="74" font-family="'Fredoka', system-ui, sans-serif" font-size="48" font-weight="700" fill="#9D8DF1" stroke="none">3</text>
  <path d="M60 130 Q56 138 64 142" stroke-width="2" stroke="#FFFFFF" fill="none"/>
  <path d="M120 130 Q116 138 124 142" stroke-width="2" stroke="#FFFFFF" fill="none"/>
  <path d="M180 130 Q176 138 184 142" stroke-width="2" stroke="#FFFFFF" fill="none"/>
</svg>
