<svg xmlns="http://www.w3.org/2000/svg" viewBox="0 0 240 240" fill="none" stroke="#1F2933" stroke-width="2.5" stroke-linejoin="round" stroke-linecap="round">
  <title>Ten little ducklings live by the pond</title>
  <rect x="0" y="0" width="240" height="240" fill="#3DA9FC" stroke="none" opacity="0.25"/>
  <ellipse cx="120" cy="180" rx="120" ry="48" fill="#3DA9FC"/>
  <path d="M0 200 Q60 192 120 200 Q180 208 240 200" stroke-width="2" stroke="#FFFFFF" fill="none"/>
  <g>
    <ellipse cx="50" cy="170" rx="20" ry="14" fill="#FFC857"/>
    <circle cx="62" cy="158" r="11" fill="#FFC857"/>
    <path d="M70 156 L80 154 L72 162 Z" fill="#F08A4B"/>
    <circle cx="62" cy="156" r="1.8" fill="#1F2933" stroke="none"/>
  </g>
  <g>
    <ellipse cx="100" cy="174" rx="20" ry="14" fill="#FFC857"/>
    <circle cx="112" cy="162" r="11" fill="#FFC857"/>
    <path d="M120 160 L130 158 L122 166 Z" fill="#F08A4B"/>
    <circle cx="112" cy="160" r="1.8" fill="#1F2933" stroke="none"/>
  </g>
  <g>
    <ellipse cx="150" cy="170" rx="20" ry="14" fill="#FFC857"/>
    <circle cx="162" cy="158" r="11" fill="#FFC857"/>
    <path d="M170 156 L180 154 L172 162 Z" fill="#F08A4B"/>
    <circle cx="162" cy="156" r="1.8" fill="#1F2933" stroke="none"/>
  </g>
  <g>
    <ellipse cx="200" cy="174" rx="20" ry="14" fill="#FFC857"/>
    <circle cx="212" cy="162" r="11" fill="#FFC857"/>
    <path d="M220 160 L230 158 L222 166 Z" fill="#F08A4B"/>
    <circle cx="212" cy="160" r="1.8" fill="#1F2933" stroke="none"/>
  </g>
  <path d="M40 86 Q24 86 24 102 Q24 116 40 116 Q40 96 60 92 Q80 80 100 92 Q120 86 140 96 Q160 86 180 96 Q200 90 210 110 Q220 106 220 96 Q220 80 200 82 Q190 70 170 76 Q150 64 130 76 Q108 66 88 76 Q66 70 50 80 Z" fill="#FFFFFF"/>
</svg>
