<svg xmlns="http://www.w3.org/2000/svg" viewBox="0 0 240 240" fill="none" stroke="#1F2933" stroke-width="2.5" stroke-linejoin="round" stroke-linecap="round">
  <title>Mommy and Daddy carry the picnic blanket</title>
  <rect x="0" y="0" width="240" height="240" fill="#3DA9FC" stroke="none" opacity="0.35"/>
  <rect x="0" y="180" width="240" height="60" fill="#5FB37C" stroke="none"/>
  <path d="M0 180 L240 180" stroke-width="2.5"/>
  <circle cx="74" cy="130" r="26" fill="#FFFFFF"/>
  <ellipse cx="66" cy="100" rx="6" ry="18" fill="#FFFFFF"/>
  <ellipse cx="82" cy="100" rx="6" ry="18" fill="#FFFFFF"/>
  <circle cx="68" cy="128" r="3" fill="#1F2933" stroke="none"/>
  <circle cx="80" cy="128" r="3" fill="#1F2933" stroke="none"/>
  <path d="M68 140 Q74 146 80 140" stroke-width="1.5"/>
  <ellipse cx="74" cy="172" rx="22" ry="14" fill="#3DA9FC"/>
  <circle cx="166" cy="130" r="26" fill="#FFFFFF"/>
  <ellipse cx="158" cy="100" rx="6" ry="18" fill="#FFFFFF"/>
  <ellipse cx="174" cy="100" rx="6" ry="18" fill="#FFFFFF"/>
  <circle cx="160" cy="128" r="3" fill="#1F2933" stroke="none"/>
  <circle cx="172" cy="128" r="3" fill="#1F2933" stroke="none"/>
  <path d="M160 140 Q166 146 172 140" stroke-width="1.5"/>
  <ellipse cx="166" cy="172" rx="22" ry="14" fill="#F08A4B"/>
  <path d="M96 180 L144 180 L144 200 L96 200 Z" fill="#E04848"/>
  <path d="M96 180 L144 180" stroke-width="2"/>
  <path d="M104 184 L104 200 M112 184 L112 200 M120 184 L120 200 M128 184 L128 200 M136 184 L136 200" stroke="#FFFFFF" stroke-width="1"/>
</svg>
