<svg xmlns="http://www.w3.org/2000/svg" viewBox="0 0 240 240" fill="none" stroke="#1F2933" stroke-width="2.5" stroke-linejoin="round" stroke-linecap="round">
  <title>Milo the fox says hello to Bea the bunny</title>
  <rect x="0" y="0" width="240" height="240" fill="#FFF8EE" stroke="none"/>
  <rect x="0" y="180" width="240" height="60" fill="#5FB37C" stroke="none"/>
  <path d="M0 180 L240 180" stroke-width="2.5"/>
  <circle cx="74" cy="130" r="34" fill="#F08A4B"/>
  <path d="M48 110 L42 80 L66 108 Z" fill="#F08A4B"/>
  <path d="M100 110 L106 80 L82 108 Z" fill="#F08A4B"/>
  <circle cx="66" cy="128" r="3" fill="#1F2933" stroke="none"/>
  <circle cx="84" cy="128" r="3" fill="#1F2933" stroke="none"/>
  <path d="M66 140 Q74 148 82 140" stroke-width="1.5"/>
  <ellipse cx="74" cy="190" rx="32" ry="22" fill="#F08A4B"/>
  <ellipse cx="174" cy="130" rx="30" ry="38" fill="#FFFFFF"/>
  <ellipse cx="162" cy="88" rx="8" ry="22" fill="#FFFFFF"/>
  <ellipse cx="186" cy="88" rx="8" ry="22" fill="#FFFFFF"/>
  <circle cx="166" cy="130" r="3" fill="#1F2933" stroke="none"/>
  <circle cx="184" cy="130" r="3" fill="#1F2933" stroke="none"/>
  <path d="M168 142 Q174 148 180 142" stroke-width="1.5"/>
  <ellipse cx="174" cy="190" rx="28" ry="18" fill="#FFFFFF"/>
  <path d="M118 88 Q108 70 124 60 L140 60 Q148 64 148 72 L148 92 Q148 104 138 104 L128 104 L120 114 Z" fill="#3DA9FC"/>
  <text x="133" y="90" font-family="'Fredoka', system-ui, sans-serif" font-size="14" font-weight="700" fill="#FFFFFF" stroke="none" text-anchor="middle">Hi!</text>
</svg>
