<svg xmlns="http://www.w3.org/2000/svg" viewBox="0 0 240 240" fill="none" stroke="#1F2933" stroke-width="2.5" stroke-linejoin="round" stroke-linecap="round">
  <title>Milo waves goodbye to Bea</title>
  <rect x="0" y="0" width="240" height="240" fill="#FFF8EE" stroke="none"/>
  <rect x="0" y="180" width="240" height="60" fill="#5FB37C" stroke="none"/>
  <path d="M0 180 L240 180" stroke-width="2.5"/>
  <circle cx="84" cy="138" r="30" fill="#F08A4B"/>
  <path d="M62 120 L58 96 L78 118 Z" fill="#F08A4B"/>
  <path d="M106 120 L110 96 L90 118 Z" fill="#F08A4B"/>
  <circle cx="76" cy="138" r="3" fill="#1F2933" stroke="none"/>
  <circle cx="94" cy="138" r="3" fill="#1F2933" stroke="none"/>
  <path d="M76 150 Q84 156 92 150" stroke-width="1.5"/>
  <ellipse cx="84" cy="194" rx="26" ry="18" fill="#F08A4B"/>
  <path d="M118 130 Q108 110 114 96 Q126 92 134 102 Q142 92 150 102 Q156 96 162 106 L162 154 Q160 168 144 168 Q126 168 118 154 Z" fill="#F08A4B"/>
  <ellipse cx="190" cy="160" rx="26" ry="24" fill="#FFFFFF"/>
  <ellipse cx="184" cy="138" rx="6" ry="14" fill="#FFFFFF"/>
  <ellipse cx="196" cy="138" rx="6" ry="14" fill="#FFFFFF"/>
  <circle cx="186" cy="160" r="2.5" fill="#1F2933" stroke="none"/>
  <circle cx="194" cy="160" r="2.5" fill="#1F2933" stroke="none"/>
  <path d="M186 170 Q190 174 194 170" stroke-width="1.5"/>
  <path d="M40 60 Q56 50 70 60" stroke-width="2" stroke="#3DA9FC"/>
  <path d="M30 80 Q50 68 70 80" stroke-width="2" stroke="#3DA9FC"/>
</svg>
