<svg xmlns="http://www.w3.org/2000/svg" viewBox="0 0 240 240" fill="none" stroke="#1F2933" stroke-width="2.5" stroke-linejoin="round" stroke-linecap="round">
  <title>Mommy duck smiles, a happy pond</title>
  <rect x="0" y="0" width="240" height="240" fill="#3DA9FC" stroke="none" opacity="0.25"/>
  <rect x="0" y="140" width="240" height="100" fill="#3DA9FC"/>
  <path d="M0 160 Q60 154 120 160 Q180 166 240 160" stroke-width="2" stroke="#FFFFFF" fill="none"/>
  <path d="M0 200 Q60 194 120 200 Q180 206 240 200" stroke-width="2" stroke="#FFFFFF" fill="none"/>
  <ellipse cx="120" cy="160" rx="50" ry="36" fill="#FFC857"/>
  <circle cx="148" cy="118" r="30" fill="#FFC857"/>
  <path d="M170 116 L200 110 L180 130 Z" fill="#F08A4B"/>
  <circle cx="146" cy="116" r="3.5" fill="#1F2933" stroke="none"/>
  <path d="M140 130 Q150 138 158 128" stroke-width="2"/>
  <g fill="#FFC857" stroke="#1F2933" stroke-width="1.8">
    <g><ellipse cx="40" cy="184" rx="10" ry="7"/><circle cx="44" cy="178" r="6"/></g>
    <g><ellipse cx="70" cy="190" rx="10" ry="7"/><circle cx="74" cy="184" r="6"/></g>
    <g><ellipse cx="200" cy="184" rx="10" ry="7"/><circle cx="204" cy="178" r="6"/></g>
    <g><ellipse cx="170" cy="190" rx="10" ry="7"/><circle cx="174" cy="184" r="6"/></g>
  </g>
  <path d="M70 60 Q90 56 100 64" stroke="#F08A4B" stroke-width="3" fill="none"/>
  <path d="M60 80 Q80 76 92 84" stroke="#F08A4B" stroke-width="3" fill="none"/>
  <path d="M180 50 L184 60 L194 60 L186 66 L190 76 L180 70 L170 76 L174 66 L166 60 L176 60 Z" fill="#FFC857" stroke="#1F2933" stroke-width="1.5"/>
</svg>
