<svg xmlns="http://www.w3.org/2000/svg" viewBox="0 0 240 240" fill="none" stroke="#1F2933" stroke-width="2.5" stroke-linejoin="round" stroke-linecap="round">
  <title>Bea Bunny's family goes to the park</title>
  <rect x="0" y="0" width="240" height="240" fill="#3DA9FC" stroke="none" opacity="0.35"/>
  <rect x="0" y="170" width="240" height="70" fill="#5FB37C" stroke="none"/>
  <path d="M0 170 L240 170" stroke-width="2.5"/>
  <circle cx="40" cy="40" r="14" fill="#FFC857"/>
  <path d="M60 80 Q40 60 20 80 Q40 60 60 80 Z" fill="#FFFFFF"/>
  <path d="M200 90 Q220 76 200 60 Q180 76 200 90 Z" fill="#FFFFFF"/>
  <path d="M120 110 L100 170 L140 170 Z" fill="#A06A3F"/>
  <path d="M120 50 Q90 70 100 110 L140 110 Q150 70 120 50 Z" fill="#5FB37C"/>
  <circle cx="68" cy="158" r="14" fill="#FFFFFF"/>
  <ellipse cx="60" cy="140" rx="5" ry="14" fill="#FFFFFF"/>
  <ellipse cx="76" cy="140" rx="5" ry="14" fill="#FFFFFF"/>
  <circle cx="64" cy="156" r="1.8" fill="#1F2933" stroke="none"/>
  <circle cx="72" cy="156" r="1.8" fill="#1F2933" stroke="none"/>
  <circle cx="180" cy="158" r="14" fill="#FFFFFF"/>
  <ellipse cx="172" cy="140" rx="5" ry="14" fill="#FFFFFF"/>
  <ellipse cx="188" cy="140" rx="5" ry="14" fill="#FFFFFF"/>
  <circle cx="176" cy="156" r="1.8" fill="#1F2933" stroke="none"/>
  <circle cx="184" cy="156" r="1.8" fill="#1F2933" stroke="none"/>
</svg>
