<svg xmlns="http://www.w3.org/2000/svg" viewBox="0 0 240 240" fill="none" stroke="#1F2933" stroke-width="2.5" stroke-linejoin="round" stroke-linecap="round" role="img" aria-label="Milo">
  <title>Milo the fox, still pose</title>
  <circle cx="120" cy="120" r="60" fill="#F08A4B"/>
  <path d="M80 86 L62 50 L104 78 Z" fill="#F08A4B"/>
  <path d="M160 86 L178 50 L136 78 Z" fill="#F08A4B"/>
  <path d="M80 86 L72 60 L96 80 Z" fill="#FFFFFF" stroke="none"/>
  <path d="M160 86 L168 60 L144 80 Z" fill="#FFFFFF" stroke="none"/>
  <path d="M100 140 Q120 158 140 140 L140 130 Q120 136 100 130 Z" fill="#FFF8EE"/>
  <circle cx="106" cy="116" r="5" fill="#1F2933" stroke="none"/>
  <circle cx="134" cy="116" r="5" fill="#1F2933" stroke="none"/>
  <circle cx="107" cy="114" r="1.6" fill="#FFFFFF" stroke="none"/>
  <circle cx="135" cy="114" r="1.6" fill="#FFFFFF" stroke="none"/>
  <ellipse cx="120" cy="146" rx="6" ry="4" fill="#1F2933" stroke="none"/>
  <path d="M108 156 Q120 168 132 156" stroke-width="2.5" fill="none"/>
</svg>
