<svg xmlns="http://www.w3.org/2000/svg" viewBox="0 0 240 240" fill="none" stroke="#1F2933" stroke-width="2.5" stroke-linejoin="round" stroke-linecap="round">
  <title>A polite "no thanks" to a red apple</title>
  <rect x="0" y="0" width="240" height="240" fill="#FFF8EE" stroke="none"/>
  <g transform="translate(-40,30) scale(0.5)">
    <circle cx="120" cy="110" r="56" fill="#FFC857"/>
    <circle cx="100" cy="104" r="5" fill="#1F2933" stroke="none"/>
    <circle cx="140" cy="104" r="5" fill="#1F2933" stroke="none"/>
    <path d="M104 130 L136 130" stroke-width="3"/>
  </g>
  <path d="M40 70 Q60 64 80 70" stroke="#3DA9FC" stroke-width="3" fill="none"/>
  <path d="M120 80 Q60 80 60 150 Q60 200 120 200 Q180 200 180 150 Q180 80 120 80 Z" fill="#E04848"/>
  <path d="M120 80 Q128 64 142 60" stroke-width="3"/>
  <path d="M130 70 Q150 56 165 70 Q145 80 130 70 Z" fill="#5FB37C"/>
  <ellipse cx="100" cy="118" rx="7" ry="10" fill="#FFFFFF" opacity="0.55" stroke="none"/>
</svg>
