<svg xmlns="http://www.w3.org/2000/svg" viewBox="0 0 240 240" fill="none" stroke="#1F2933" stroke-width="2.5" stroke-linejoin="round" stroke-linecap="round">
  <title>Thumbs up to a red apple</title>
  <rect x="0" y="0" width="240" height="240" fill="#FFF8EE" stroke="none"/>
  <g transform="translate(-30,40) scale(0.6)">
    <path d="M70 200 L70 130 Q70 122 78 122 L108 122 L108 80 Q108 60 128 60 Q148 60 144 86 L138 116 L172 116 Q186 116 186 130 L182 184 Q180 200 164 200 Z" fill="#FFC857"/>
  </g>
  <path d="M120 80 Q60 80 60 150 Q60 200 120 200 Q180 200 180 150 Q180 80 120 80 Z" fill="#E04848"/>
  <path d="M120 80 Q128 64 142 60" stroke-width="3"/>
  <path d="M130 70 Q150 56 165 70 Q145 80 130 70 Z" fill="#5FB37C"/>
  <ellipse cx="100" cy="118" rx="7" ry="10" fill="#FFFFFF" opacity="0.55" stroke="none"/>
</svg>
