<svg xmlns="http://www.w3.org/2000/svg" viewBox="0 0 240 240" fill="none" stroke="#1F2933" stroke-width="2.5" stroke-linejoin="round" stroke-linecap="round">
  <title>Thumbs up to a green pear</title>
  <rect x="0" y="0" width="240" height="240" fill="#FFF8EE" stroke="none"/>
  <g transform="translate(-30,40) scale(0.6)">
    <path d="M70 200 L70 130 Q70 122 78 122 L108 122 L108 80 Q108 60 128 60 Q148 60 144 86 L138 116 L172 116 Q186 116 186 130 L182 184 Q180 200 164 200 Z" fill="#FFC857"/>
  </g>
  <path d="M120 70 Q100 70 96 100 Q70 130 80 170 Q90 210 120 210 Q150 210 160 170 Q170 130 144 100 Q140 70 120 70 Z" fill="#5FB37C"/>
  <path d="M120 70 Q124 58 138 56" stroke-width="3"/>
  <path d="M124 64 Q138 52 150 64 Q138 72 124 64 Z" fill="#5FB37C"/>
  <ellipse cx="104" cy="140" rx="6" ry="10" fill="#FFFFFF" opacity="0.55" stroke="none"/>
</svg>
