<svg xmlns="http://www.w3.org/2000/svg" viewBox="0 0 240 240" fill="none" stroke="#1F2933" stroke-width="2.5" stroke-linejoin="round" stroke-linecap="round">
  <title>A red strawberry</title>
  <rect x="0" y="0" width="240" height="240" fill="#FFF8EE" stroke="none"/>
  <path d="M120 80 L160 88 L180 110 Q180 170 120 210 Q60 170 60 110 L80 88 Z" fill="#E04848"/>
  <path d="M80 88 L120 70 L160 88 Q150 76 120 72 Q90 76 80 88 Z" fill="#5FB37C"/>
  <g fill="#FFC857" stroke="#1F2933" stroke-width="1">
    <circle cx="100" cy="120" r="2.4"/><circle cx="120" cy="120" r="2.4"/><circle cx="140" cy="120" r="2.4"/>
    <circle cx="90" cy="148" r="2.4"/><circle cx="110" cy="148" r="2.4"/><circle cx="130" cy="148" r="2.4"/><circle cx="150" cy="148" r="2.4"/>
    <circle cx="100" cy="176" r="2.4"/><circle cx="120" cy="176" r="2.4"/><circle cx="140" cy="176" r="2.4"/>
  </g>
</svg>
