<svg xmlns="http://www.w3.org/2000/svg" viewBox="0 0 240 240" fill="none" stroke="#1F2933" stroke-width="2.5" stroke-linejoin="round" stroke-linecap="round">
  <title>A bird in the sky — birds can fly, they don't swim like a fish</title>
  <rect x="0" y="0" width="240" height="240" fill="#FFF8EE" stroke="none"/>
  <path d="M30 50 Q50 44 70 50" stroke="#B7BEC9" stroke-width="3" fill="none"/>
  <path d="M50 70 Q70 64 90 70" stroke="#B7BEC9" stroke-width="3" fill="none"/>
  <circle cx="120" cy="118" r="40" fill="#3DA9FC"/>
  <circle cx="108" cy="114" r="4" fill="#1F2933" stroke="none"/>
  <circle cx="132" cy="114" r="4" fill="#1F2933" stroke="none"/>
  <path d="M108 130 Q120 138 132 130" stroke-width="1.5"/>
  <path d="M68 118 Q88 104 100 116" stroke-width="4" fill="none"/>
  <path d="M172 118 Q152 104 140 116" stroke-width="4" fill="none"/>
  <text x="120" y="200" text-anchor="middle" font-family="'Fredoka', system-ui, sans-serif" font-size="16" font-weight="700" fill="#1F2933" stroke="none">bird + swim</text>
  <circle cx="180" cy="60" r="28" fill="none" stroke="#F2C46A" stroke-width="3" stroke-dasharray="4 4"/>
  <path d="M168 54 Q180 66 192 54" stroke="#F2C46A" stroke-width="3" stroke-dasharray="3 3" fill="none"/>
  <path d="M168 64 Q180 72 192 64" stroke="#F2C46A" stroke-width="3" stroke-dasharray="3 3" fill="none"/>
</svg>
